<svg width="185" height="281" viewBox="0 0 185 281" fill="none" xmlns="http://www.w3.org/2000/svg">
<path d="M129.865 0.099586C129.865 0.099586 129.606 0.099586 129.108 0.099586C128.381 0.0614944 127.652 0.0614944 126.925 0.099586C124.112 0.24483 121.348 0.816319 118.755 1.789C114.645 3.30854 111.069 5.76649 108.393 8.90993C106.743 10.8727 105.516 13.0859 104.773 15.4395C103.097 21.046 104.002 27.0097 107.292 32.0297C108.188 33.4195 109.283 34.7026 110.548 35.8478C111.824 37.061 113.311 38.0875 114.953 38.8888C116.638 39.7251 118.546 40.148 120.479 40.1136C122.472 40.0925 124.383 39.411 125.833 38.2045C126.534 37.5569 127.083 36.7939 127.449 35.9591C127.816 35.1243 127.992 34.234 127.969 33.339C127.954 31.4796 127.285 29.6701 126.053 28.1609C123.573 25.0777 119.55 23.0082 115.269 21.8931C110.83 20.7935 106.143 20.7353 101.67 21.7242C99.3871 22.248 97.1867 23.0198 95.1193 24.0218C93.0322 25.0607 91.1365 26.3737 89.4976 27.9159C89.1049 28.313 88.6548 28.6762 88.3005 29.1154L87.2183 30.3994C86.5602 31.3042 85.9715 32.2467 85.4561 33.2207C84.4317 35.1983 83.7319 37.2946 83.3778 39.4463C82.6827 43.7448 83.3455 48.1292 85.2933 52.1169C87.155 56.0134 90.3974 59.2733 94.5351 61.4088C96.5413 62.4198 98.7807 63.0175 101.086 63.1573C103.346 63.2688 105.594 62.7931 107.55 61.7889C109.492 60.8422 111.027 59.3579 111.917 57.5653C112.757 55.7986 112.815 53.8182 112.08 52.0156C111.323 50.2763 110.086 48.7315 108.479 47.5217C106.921 46.3342 105.125 45.4145 103.183 44.8102C99.3962 43.757 95.3442 43.6954 91.5183 44.6328C87.9385 45.4884 84.6505 47.1037 81.9413 49.3378C79.4736 51.423 77.5942 53.9891 76.4536 56.8304C74.4587 61.7604 74.5505 67.1602 76.7122 72.0352C78.3982 75.6747 81.1115 78.8733 84.5941 81.3271C86.7879 82.879 89.2313 84.1345 91.844 85.0522C92.7442 85.3479 93.4433 85.5675 93.9222 85.6858L94.6309 85.8885C94.6309 85.8885 94.3819 85.8463 93.903 85.728C93.1955 85.561 92.4986 85.3608 91.8152 85.1283C89.1682 84.2509 86.693 83.0139 84.4792 81.4622C80.9376 79.0101 78.1706 75.7958 76.4441 72.1281C74.2442 67.2071 74.132 61.7511 76.128 56.7628C77.2707 53.8784 79.1708 51.2733 81.6731 49.1604C84.4207 46.8815 87.7575 45.2287 91.3938 44.3456C95.3001 43.3843 99.4385 43.443 103.308 44.5145C105.307 45.1294 107.156 46.0723 108.757 47.2936C110.426 48.5431 111.711 50.144 112.492 51.948C113.28 53.8313 113.246 55.9057 112.396 57.7681C111.452 59.6313 109.849 61.1751 107.828 62.169C105.799 63.212 103.469 63.711 101.124 63.605C98.7628 63.4597 96.47 62.8415 94.4202 61.7973C90.1879 59.632 86.8648 56.3157 84.9485 52.345C82.9588 48.2842 82.2762 43.8184 82.9756 39.4378C83.3412 37.2426 84.057 35.104 85.1017 33.0856C85.6279 32.0909 86.2294 31.1285 86.9022 30.2051L88.0131 28.8958C88.3675 28.4481 88.8272 28.0511 89.2294 27.6625C90.9069 26.0911 92.8442 24.7526 94.9757 23.6924C97.0911 22.6712 99.3433 21.888 101.68 21.361C106.237 20.3535 111.015 20.4147 115.538 21.5384C119.905 22.6872 123.994 24.7905 126.57 27.9835C127.865 29.5557 128.569 31.4465 128.582 33.3897C128.628 35.302 127.812 37.1524 126.312 38.534C124.78 39.8026 122.763 40.5172 120.661 40.5359C118.65 40.5762 116.665 40.1354 114.915 39.2604C113.234 38.4423 111.714 37.3897 110.414 36.1434C109.132 34.9726 108.022 33.6643 107.11 32.2493C103.762 27.1361 102.852 21.0595 104.581 15.3551C105.348 12.9742 106.604 10.738 108.288 8.75787C111.013 5.59057 114.651 3.1257 118.823 1.62006C121.437 0.666161 124.222 0.128495 127.049 0.0320076C127.783 -0.0106692 128.518 -0.0106692 129.252 0.0320076L129.865 0.099586Z" fill="#263238"/>
<path d="M161.843 84.6215H27.5627V175.969H161.843V84.6215Z" fill="#007CFF"/>
<path d="M27.5627 84.6215L52.3673 105.03H184.368L161.843 84.6215H27.5627Z" fill="#007CFF"/>
<path d="M27.5627 84.6214L161.881 84.4102H161.986L162.063 84.4694L184.358 104.666L184.588 104.878L185 105.249H184.406L52.4056 105.156H52.3482L27.5627 84.6214L52.4631 104.895H52.3578L184.358 104.81L184.186 105.182L183.947 104.971L161.661 84.7735L161.833 84.841L27.5627 84.6214Z" fill="#263238"/>
<path d="M67.9014 126.747C67.174 126.77 66.486 127.045 65.9855 127.511C65.4849 127.977 65.2119 128.598 65.2251 129.24C65.2382 129.881 65.5366 130.493 66.056 130.943C66.5753 131.393 67.2741 131.645 68.002 131.645C68.7299 131.645 69.4286 131.393 69.948 130.943C70.4673 130.493 70.7657 129.881 70.7788 129.24C70.792 128.598 70.519 127.977 70.0184 127.511C69.5179 127.045 68.8299 126.77 68.1025 126.747" fill="#263238"/>
<path d="M99.6302 126.747C98.9058 126.772 98.2211 127.046 97.7234 127.51C97.2256 127.975 96.9545 128.594 96.9683 129.233C96.9821 129.872 97.2797 130.481 97.7971 130.929C98.3146 131.377 99.0106 131.628 99.7355 131.628C100.46 131.628 101.156 131.377 101.674 130.929C102.191 130.481 102.489 129.872 102.503 129.233C102.517 128.594 102.246 127.975 101.748 127.51C101.25 127.046 100.565 126.772 99.8409 126.747" fill="#263238"/>
<path d="M99.8121 148.608C99.2584 146.742 98.3588 144.97 97.1497 143.363C95.8048 141.644 94.0779 140.184 92.0738 139.072C89.6561 137.656 86.8362 136.869 83.9356 136.799C81.035 136.728 78.1705 137.378 75.6684 138.675C73.6019 139.692 71.7879 141.065 70.3339 142.712C69.0244 144.26 68.0177 145.99 67.3555 147.831C67.3628 147.694 67.3886 147.558 67.4321 147.426C67.5238 147.045 67.6422 146.67 67.7864 146.302C68.3112 144.945 69.0774 143.671 70.0562 142.526C71.4998 140.802 73.3365 139.364 75.4481 138.303C78.0147 136.951 80.9642 136.272 83.9523 136.344C86.9403 136.416 89.8435 137.236 92.3229 138.708C94.3616 139.864 96.1037 141.383 97.437 143.168C98.3468 144.36 99.0354 145.671 99.4769 147.054C99.5948 147.429 99.6875 147.81 99.7547 148.194C99.7877 148.331 99.8069 148.469 99.8121 148.608Z" fill="#263238"/>
<path opacity="0.5" d="M27.8691 85.6266L51.6202 112.184H161.843V105.03H52.3672L27.8691 85.6266Z" fill="black"/>
<path d="M135.362 175.766C135.228 175.766 135.113 159.877 135.113 140.288C135.113 120.699 135.228 104.81 135.362 104.81C135.496 104.81 135.621 120.691 135.621 140.288C135.621 159.885 135.506 175.766 135.362 175.766Z" fill="#263238"/>
<path d="M156.451 155.054H144.614V166.854H156.451V155.054Z" fill="#F5F5F5"/>
<path d="M27.5628 84.6215L0 105.03H27.5628V84.6215Z" fill="#007CFF"/>
<g opacity="0.4">
<path d="M27.5628 84.6215L0 105.03H27.5628V84.6215Z" fill="black"/>
</g>
<path d="M165.807 175.969H11.4158V281H165.807V175.969Z" fill="#007CFF"/>
<path opacity="0.3" d="M165.807 175.969H11.4158V281H165.807V175.969Z" fill="black"/>
<path d="M127.126 280.257C126.992 280.257 126.877 256.85 126.877 227.977C126.877 199.105 126.992 175.69 127.126 175.69C127.26 175.69 127.375 199.097 127.375 227.977C127.375 256.858 127.26 280.257 127.126 280.257Z" fill="#263238"/>
<path d="M152.716 257.095H140.878V268.895H152.716V257.095Z" fill="#F5F5F5"/>
<path d="M76.0515 176.247H58.5159V198.657H76.0515V176.247Z" fill="#263238"/>
<path d="M76.0515 258.277H58.5159V280.687H76.0515V258.277Z" fill="#263238"/>
<path d="M164.467 175.969H164.064H162.906L158.452 176.011L142.047 176.078L87.946 176.188L33.8261 176.129L17.4302 176.061L12.9768 176.019L17.4302 175.977L33.8261 175.909L87.946 175.842L142.047 175.909L158.452 175.977L162.906 176.019H164.064L164.467 175.969Z" fill="#263238"/>
</svg>
