<svg width="93" height="20" viewBox="0 0 93 20" fill="none" xmlns="http://www.w3.org/2000/svg">
<path d="M7.98 15.2C6.91333 15.2 5.92667 15.02 5.02 14.66C4.12667 14.3 3.34667 13.7933 2.68 13.14C2.02667 12.4733 1.51333 11.6867 1.14 10.78C0.78 9.86 0.6 8.84667 0.6 7.74C0.6 6.27333 0.913333 4.99333 1.54 3.9C2.16667 2.79333 3.03333 1.93333 4.14 1.32C5.26 0.706666 6.53333 0.4 7.96 0.4C9.41333 0.4 10.6933 0.706666 11.8 1.32C12.9067 1.93333 13.7733 2.79333 14.4 3.9C15.04 5.00667 15.36 6.29333 15.36 7.76C15.36 8.85333 15.1733 9.86 14.8 10.78C14.44 11.6867 13.9267 12.4733 13.26 13.14C12.6067 13.7933 11.8267 14.3 10.92 14.66C10.0267 15.02 9.04667 15.2 7.98 15.2ZM7.96 12.76C8.8 12.76 9.54 12.5467 10.18 12.12C10.82 11.6933 11.32 11.1067 11.68 10.36C12.0533 9.6 12.24 8.72 12.24 7.72C12.24 6.73333 12.06 5.87333 11.7 5.14C11.34 4.40667 10.84 3.84 10.2 3.44C9.56 3.04 8.81333 2.84 7.96 2.84C7.12 2.84 6.38 3.04 5.74 3.44C5.1 3.84 4.6 4.40667 4.24 5.14C3.89333 5.86 3.72 6.72 3.72 7.72C3.72 8.73333 3.9 9.62 4.26 10.38C4.62 11.1267 5.12 11.7133 5.76 12.14C6.4 12.5533 7.13333 12.76 7.96 12.76ZM23.377 15.2C22.4037 15.2 21.6237 14.9733 21.037 14.52C20.4504 14.0667 20.1037 13.4467 19.997 12.66L20.157 12.64V19.1H17.157V4.8H20.097V7.06L19.917 7.02C20.0637 6.27333 20.4637 5.68667 21.117 5.26C21.7704 4.82 22.577 4.6 23.537 4.6C24.457 4.6 25.2504 4.82 25.917 5.26C26.597 5.68667 27.117 6.29333 27.477 7.08C27.8504 7.86667 28.037 8.79333 28.037 9.86C28.037 10.94 27.8437 11.88 27.457 12.68C27.0704 13.48 26.5304 14.1 25.837 14.54C25.1437 14.98 24.3237 15.2 23.377 15.2ZM22.537 12.8C23.2437 12.8 23.817 12.5467 24.257 12.04C24.697 11.5333 24.917 10.8133 24.917 9.88C24.917 8.94667 24.6904 8.23333 24.237 7.74C23.797 7.24667 23.217 7 22.497 7C21.8037 7 21.2304 7.25333 20.777 7.76C20.337 8.25333 20.117 8.96667 20.117 9.9C20.117 10.8333 20.337 11.5533 20.777 12.06C21.2304 12.5533 21.817 12.8 22.537 12.8ZM34.7109 15.2C33.5776 15.2 32.5909 14.98 31.7509 14.54C30.9109 14.0867 30.2576 13.46 29.7909 12.66C29.3376 11.86 29.1109 10.94 29.1109 9.9C29.1109 8.84667 29.3376 7.92667 29.7909 7.14C30.2576 6.34 30.9043 5.72 31.7309 5.28C32.5576 4.82667 33.5176 4.6 34.6109 4.6C35.6643 4.6 36.5776 4.81333 37.3509 5.24C38.1243 5.66667 38.7243 6.26 39.1509 7.02C39.5776 7.78 39.7909 8.67333 39.7909 9.7C39.7909 9.91333 39.7843 10.1133 39.7709 10.3C39.7576 10.4733 39.7376 10.64 39.7109 10.8H30.8709V8.82H37.2909L36.7709 9.18C36.7709 8.35333 36.5709 7.74667 36.1709 7.36C35.7843 6.96 35.2509 6.76 34.5709 6.76C33.7843 6.76 33.1709 7.02667 32.7309 7.56C32.3043 8.09333 32.0909 8.89333 32.0909 9.96C32.0909 11 32.3043 11.7733 32.7309 12.28C33.1709 12.7867 33.8243 13.04 34.6909 13.04C35.1709 13.04 35.5843 12.96 35.9309 12.8C36.2776 12.64 36.5376 12.38 36.7109 12.02H39.5309C39.1976 13.0067 38.6243 13.7867 37.8109 14.36C37.0109 14.92 35.9776 15.2 34.7109 15.2ZM41.3953 15V4.8H44.3353V7.2H44.3953V15H41.3953ZM48.4953 15V8.68C48.4953 8.12 48.3486 7.7 48.0553 7.42C47.7753 7.14 47.362 7 46.8153 7C46.3486 7 45.9286 7.10667 45.5553 7.32C45.1953 7.53333 44.9086 7.82667 44.6953 8.2C44.4953 8.57333 44.3953 9.01333 44.3953 9.52L44.1353 7.06C44.4686 6.31333 44.9553 5.72 45.5953 5.28C46.2486 4.82667 47.0486 4.6 47.9953 4.6C49.1286 4.6 49.9953 4.92 50.5953 5.56C51.1953 6.18667 51.4953 7.03333 51.4953 8.1V15H48.4953Z" fill="#007CFF"/>
<path d="M61.5667 15V2.96H56.8667V0.599999H69.3467V2.96H64.6467V15H61.5667ZM68.8563 15V4.8H71.7963V7.2H71.8563V15H68.8563ZM71.8563 9.68L71.5963 7.26C71.8363 6.39333 72.2296 5.73333 72.7763 5.28C73.3229 4.82667 74.0029 4.6 74.8163 4.6C75.0696 4.6 75.2563 4.62667 75.3763 4.68V7.48C75.3096 7.45333 75.2163 7.44 75.0963 7.44C74.9763 7.42667 74.8296 7.42 74.6563 7.42C73.6963 7.42 72.9896 7.59333 72.5363 7.94C72.0829 8.27333 71.8563 8.85333 71.8563 9.68ZM76.6688 15V4.8H79.6688V15H76.6688ZM76.5688 3.44V0.2H79.7688V3.44H76.5688ZM88.2794 15.2C87.306 15.2 86.526 14.9733 85.9394 14.52C85.3527 14.0667 85.006 13.4467 84.8994 12.66L85.0594 12.64V19.1H82.0594V4.8H84.9994V7.06L84.8194 7.02C84.966 6.27333 85.366 5.68667 86.0194 5.26C86.6727 4.82 87.4794 4.6 88.4394 4.6C89.3594 4.6 90.1527 4.82 90.8194 5.26C91.4994 5.68667 92.0194 6.29333 92.3794 7.08C92.7527 7.86667 92.9394 8.79333 92.9394 9.86C92.9394 10.94 92.746 11.88 92.3594 12.68C91.9727 13.48 91.4327 14.1 90.7394 14.54C90.046 14.98 89.226 15.2 88.2794 15.2ZM87.4394 12.8C88.146 12.8 88.7194 12.5467 89.1594 12.04C89.5994 11.5333 89.8194 10.8133 89.8194 9.88C89.8194 8.94667 89.5927 8.23333 89.1394 7.74C88.6994 7.24667 88.1194 7 87.3994 7C86.706 7 86.1327 7.25333 85.6794 7.76C85.2394 8.25333 85.0194 8.96667 85.0194 9.9C85.0194 10.8333 85.2394 11.5533 85.6794 12.06C86.1327 12.5533 86.7194 12.8 87.4394 12.8Z" fill="#1E1E1E"/>
</svg>
